<svg width="788" height="586" viewBox="0 0 788 586" fill="none" xmlns="http://www.w3.org/2000/svg">
<g id="lotes">
<rect id="lote-fill" width="788" height="586" fill="#C4C4C4"/>
<g id="a">
<rect id="a-fill" x="48" y="48" width="217" height="171" fill="#FAFAFA"/>
<path id="A" d="M166.782 135.197H146.23L141.614 148H134.943L153.676 98.9453H159.336L178.102 148H171.465L166.782 135.197ZM148.184 129.874H164.861L156.506 106.93L148.184 129.874Z" fill="black"/>
</g>
<g id="b">
<rect id="b-fill" x="48" y="278" width="217" height="171" fill="#FAFAFA"/>
<path id="B" d="M139.694 378V328.945H155.731C161.054 328.945 165.052 330.046 167.725 332.247C170.42 334.448 171.768 337.705 171.768 342.018C171.768 344.309 171.117 346.341 169.814 348.116C168.511 349.868 166.737 351.227 164.491 352.192C167.141 352.934 169.23 354.349 170.757 356.438C172.307 358.504 173.082 360.975 173.082 363.85C173.082 368.252 171.656 371.711 168.803 374.227C165.951 376.742 161.919 378 156.708 378H139.694ZM146.163 355.056V372.71H156.843C159.853 372.71 162.222 371.936 163.952 370.386C165.704 368.813 166.58 366.657 166.58 363.917C166.58 358.01 163.368 355.056 156.944 355.056H146.163ZM146.163 349.868H155.933C158.763 349.868 161.021 349.16 162.705 347.745C164.412 346.33 165.266 344.41 165.266 341.984C165.266 339.289 164.479 337.334 162.907 336.122C161.335 334.886 158.943 334.269 155.731 334.269H146.163V349.868Z" fill="black"/>
</g>
<g id="c">
<rect id="c-fill" x="495" y="278" width="217" height="171" fill="#FAFAFA"/>
<path id="C" d="M622.777 362.435C622.171 367.623 620.25 371.632 617.016 374.462C613.804 377.27 609.525 378.674 604.18 378.674C598.385 378.674 593.735 376.596 590.231 372.441C586.75 368.286 585.009 362.727 585.009 355.764V351.047C585.009 346.487 585.818 342.478 587.435 339.019C589.075 335.56 591.388 332.91 594.375 331.068C597.363 329.204 600.822 328.271 604.752 328.271C609.963 328.271 614.141 329.731 617.286 332.651C620.43 335.549 622.261 339.569 622.777 344.713H616.275C615.713 340.805 614.489 337.975 612.603 336.223C610.738 334.471 608.122 333.595 604.752 333.595C600.62 333.595 597.374 335.122 595.016 338.177C592.68 341.231 591.512 345.578 591.512 351.215V355.966C591.512 361.289 592.624 365.523 594.847 368.667C597.071 371.812 600.182 373.384 604.18 373.384C607.773 373.384 610.525 372.576 612.434 370.958C614.366 369.319 615.646 366.478 616.275 362.435H622.777Z" fill="black"/>
</g>
<g id="d">
<rect id="d-fill" x="495" y="48" width="217" height="171" fill="#FAFAFA"/>
<path id="D" d="M586.694 148V98.9453H600.541C604.809 98.9453 608.582 99.8887 611.861 101.775C615.141 103.662 617.667 106.346 619.442 109.828C621.239 113.309 622.148 117.307 622.171 121.822V124.955C622.171 129.582 621.272 133.636 619.476 137.118C617.701 140.599 615.152 143.272 611.828 145.136C608.526 147 604.674 147.955 600.271 148H586.694ZM593.163 104.269V142.71H599.968C604.955 142.71 608.829 141.161 611.592 138.061C614.377 134.961 615.77 130.548 615.77 124.82V121.957C615.77 116.386 614.456 112.062 611.828 108.985C609.222 105.886 605.516 104.313 600.709 104.269H593.163Z" fill="black"/>
</g>
</g>
</svg>
